<svg width="200" height="106.97187966689805" viewBox="0 0 200 106.97187966689805" class="css-1j8o68f"><defs id="SvgjsDefs2471"></defs><g id="SvgjsG2472" featurekey="nameFeature-0" transform="matrix(3.806580619857359,0,0,3.806580619857359,-5.189129600301339,-45.4948998420919)" fill="#2f4880"><path d="M13.021 14.678999999999998 l0 5.7754 l-3.6631 0 l0 -4.2246 l-5.4011 0 l1.0695 0.82888 l0 3.3957 l7.9947 9.8128 l0 4.2246 l0 2.8877 c0 1.4171 -1.1497 2.6471 -2.6471 2.6471 l-6.3636 0 c-1.4973 0 -2.6471 -1.2299 -2.6471 -2.6471 l0 -5.9626 l3.6631 0 l0 4.385 l4.3316 0 l0 -4.2246 l-7.9947 -9.8128 l0 -7.0856 c0 -1.4973 1.1497 -2.6471 2.6471 -2.6471 l6.3636 0 c1.4973 0 2.6471 1.1497 2.6471 2.6471 z M18.55612459893048 31.604300000000002 l3.7701 0 l-1.8717 -15.348 z M13.823524598930481 40.053476 l3.3422 -27.193 l-0.66845 -0.80214 l7.139 0 l3.4492 27.995 l-3.7166 0 l-0.50802 -4.2246 l-5.9091 -0.026738 l0.9893 0.7754 l-0.42781 3.4759 l-3.6898 0 z M27.727267914438503 12.032 l4.3583 0 l0 23.77 l6.1497 0 l0 4.2246 l-9.8396 0 l0 -0.026738 l0 -4.1979 l0 -22.968 z M42.51334385026738 39.946524 l-3.6898 0 l0 -27.166 l-0.66845 -0.82888 l4.3583 0 l0 27.995 z M46.73799037433155 12.004999999999999 l7.1658 0 l0 4.2246 l-7.246 0 l1.0963 0.80214 c-0.10695 4.7059 -0.10695 14.064 0 18.743 l6.1497 0 l0 4.2246 l-7.1658 0 c-1.4973 0 -2.6471 -1.1497 -2.6471 -2.6471 l0 -22.701 c0 -1.4973 1.1497 -2.6471 2.6471 -2.6471 z"></path></g></svg>